<mxfile host="app.diagrams.net" modified="2021-05-21T03:16:09.627Z" agent="5.0 (Macintosh; Intel Mac OS X 10_16_0) AppleWebKit/537.36 (KHTML, like Gecko) Chrome/81.0.4044.138 Safari/537.36" etag="zEIk0I6zDzvBm35qtq49" version="14.6.13" type="github">
  <diagram id="etIzUIFxZS8Xfmk2Y35V" name="Page-1">
    <mxGraphModel dx="2125" dy="703" grid="1" gridSize="10" guides="1" tooltips="1" connect="1" arrows="1" fold="1" page="1" pageScale="1" pageWidth="827" pageHeight="1169" math="0" shadow="0">
      <root>
        <mxCell id="0" />
        <mxCell id="1" parent="0" />
        <mxCell id="N-YGZ_K4RnM6IiN2btNT-31" value="" style="rounded=0;whiteSpace=wrap;html=1;fillColor=#d5e8d4;strokeColor=#82b366;" vertex="1" parent="1">
          <mxGeometry x="170" y="220" width="300" height="345" as="geometry" />
        </mxCell>
        <mxCell id="N-YGZ_K4RnM6IiN2btNT-19" value="" style="edgeStyle=orthogonalEdgeStyle;rounded=0;orthogonalLoop=1;jettySize=auto;html=1;" edge="1" parent="1" source="N-YGZ_K4RnM6IiN2btNT-1" target="N-YGZ_K4RnM6IiN2btNT-9">
          <mxGeometry relative="1" as="geometry" />
        </mxCell>
        <mxCell id="N-YGZ_K4RnM6IiN2btNT-43" value="登录" style="edgeLabel;html=1;align=center;verticalAlign=middle;resizable=0;points=[];" vertex="1" connectable="0" parent="N-YGZ_K4RnM6IiN2btNT-19">
          <mxGeometry x="-0.4868" y="3" relative="1" as="geometry">
            <mxPoint y="1" as="offset" />
          </mxGeometry>
        </mxCell>
        <mxCell id="N-YGZ_K4RnM6IiN2btNT-1" value="阿里云账号" style="pointerEvents=1;shadow=0;dashed=0;html=1;strokeColor=none;fillColor=#505050;labelPosition=center;verticalLabelPosition=bottom;verticalAlign=top;outlineConnect=0;align=center;shape=mxgraph.office.devices.laptop;" vertex="1" parent="1">
          <mxGeometry x="20" y="279.5" width="58" height="34" as="geometry" />
        </mxCell>
        <mxCell id="N-YGZ_K4RnM6IiN2btNT-24" value="" style="edgeStyle=orthogonalEdgeStyle;rounded=0;orthogonalLoop=1;jettySize=auto;html=1;" edge="1" parent="1" source="N-YGZ_K4RnM6IiN2btNT-2" target="N-YGZ_K4RnM6IiN2btNT-16">
          <mxGeometry relative="1" as="geometry" />
        </mxCell>
        <mxCell id="N-YGZ_K4RnM6IiN2btNT-45" value="登录" style="edgeLabel;html=1;align=center;verticalAlign=middle;resizable=0;points=[];" vertex="1" connectable="0" parent="N-YGZ_K4RnM6IiN2btNT-24">
          <mxGeometry x="-0.197" y="-1" relative="1" as="geometry">
            <mxPoint as="offset" />
          </mxGeometry>
        </mxCell>
        <mxCell id="N-YGZ_K4RnM6IiN2btNT-2" value="AD域账号&lt;br&gt;便捷账号" style="pointerEvents=1;shadow=0;dashed=0;html=1;strokeColor=none;fillColor=#505050;labelPosition=center;verticalLabelPosition=bottom;verticalAlign=top;outlineConnect=0;align=center;shape=mxgraph.office.devices.laptop;" vertex="1" parent="1">
          <mxGeometry x="560" y="281" width="58" height="34" as="geometry" />
        </mxCell>
        <mxCell id="N-YGZ_K4RnM6IiN2btNT-27" value="" style="edgeStyle=orthogonalEdgeStyle;rounded=0;orthogonalLoop=1;jettySize=auto;html=1;" edge="1" parent="1" source="N-YGZ_K4RnM6IiN2btNT-3" target="N-YGZ_K4RnM6IiN2btNT-1">
          <mxGeometry relative="1" as="geometry" />
        </mxCell>
        <mxCell id="N-YGZ_K4RnM6IiN2btNT-3" value="企业管理员、&lt;br&gt;应用提供商ISV" style="pointerEvents=1;shadow=0;dashed=0;html=1;strokeColor=none;fillColor=#505050;labelPosition=center;verticalLabelPosition=bottom;verticalAlign=top;outlineConnect=0;align=center;shape=mxgraph.office.concepts.learn;" vertex="1" parent="1">
          <mxGeometry x="-70" y="268" width="56" height="57" as="geometry" />
        </mxCell>
        <mxCell id="N-YGZ_K4RnM6IiN2btNT-22" value="" style="edgeStyle=orthogonalEdgeStyle;rounded=0;orthogonalLoop=1;jettySize=auto;html=1;" edge="1" parent="1" source="N-YGZ_K4RnM6IiN2btNT-9" target="N-YGZ_K4RnM6IiN2btNT-16">
          <mxGeometry relative="1" as="geometry" />
        </mxCell>
        <mxCell id="N-YGZ_K4RnM6IiN2btNT-54" value="&lt;font color=&quot;#000000&quot; style=&quot;font-size: 12px&quot;&gt;管理&lt;/font&gt;" style="edgeLabel;html=1;align=center;verticalAlign=middle;resizable=0;points=[];fontSize=16;fontColor=#000099;" vertex="1" connectable="0" parent="N-YGZ_K4RnM6IiN2btNT-22">
          <mxGeometry x="-0.3103" y="1" relative="1" as="geometry">
            <mxPoint as="offset" />
          </mxGeometry>
        </mxCell>
        <mxCell id="N-YGZ_K4RnM6IiN2btNT-9" value="阿里云" style="pointerEvents=1;shadow=0;dashed=0;html=1;strokeColor=none;fillColor=#505050;labelPosition=center;verticalLabelPosition=bottom;verticalAlign=top;outlineConnect=0;align=center;shape=mxgraph.office.servers.hybrid_server;" vertex="1" parent="1">
          <mxGeometry x="210" y="271" width="59" height="52" as="geometry" />
        </mxCell>
        <mxCell id="N-YGZ_K4RnM6IiN2btNT-30" value="" style="rounded=0;orthogonalLoop=1;jettySize=auto;html=1;" edge="1" parent="1" source="N-YGZ_K4RnM6IiN2btNT-10">
          <mxGeometry relative="1" as="geometry">
            <mxPoint x="280" y="340" as="targetPoint" />
          </mxGeometry>
        </mxCell>
        <mxCell id="N-YGZ_K4RnM6IiN2btNT-36" value="登录用户信息" style="edgeLabel;html=1;align=center;verticalAlign=middle;resizable=0;points=[];" vertex="1" connectable="0" parent="N-YGZ_K4RnM6IiN2btNT-30">
          <mxGeometry x="0.2049" y="-3" relative="1" as="geometry">
            <mxPoint as="offset" />
          </mxGeometry>
        </mxCell>
        <mxCell id="N-YGZ_K4RnM6IiN2btNT-38" value="" style="edgeStyle=none;rounded=0;orthogonalLoop=1;jettySize=auto;html=1;" edge="1" parent="1" source="N-YGZ_K4RnM6IiN2btNT-10">
          <mxGeometry relative="1" as="geometry">
            <mxPoint x="405" y="350" as="targetPoint" />
          </mxGeometry>
        </mxCell>
        <mxCell id="N-YGZ_K4RnM6IiN2btNT-39" value="对接企业账号" style="edgeLabel;html=1;align=center;verticalAlign=middle;resizable=0;points=[];" vertex="1" connectable="0" parent="N-YGZ_K4RnM6IiN2btNT-38">
          <mxGeometry x="0.1547" relative="1" as="geometry">
            <mxPoint as="offset" />
          </mxGeometry>
        </mxCell>
        <mxCell id="N-YGZ_K4RnM6IiN2btNT-41" value="" style="edgeStyle=none;rounded=0;orthogonalLoop=1;jettySize=auto;html=1;entryX=0.333;entryY=0.742;entryDx=0;entryDy=0;entryPerimeter=0;" edge="1" parent="1" source="N-YGZ_K4RnM6IiN2btNT-10" target="N-YGZ_K4RnM6IiN2btNT-31">
          <mxGeometry relative="1" as="geometry">
            <mxPoint x="334" y="476.5" as="targetPoint" />
          </mxGeometry>
        </mxCell>
        <mxCell id="N-YGZ_K4RnM6IiN2btNT-42" value="对接 BUC&lt;br&gt;和ACL" style="edgeLabel;html=1;align=center;verticalAlign=middle;resizable=0;points=[];" vertex="1" connectable="0" parent="N-YGZ_K4RnM6IiN2btNT-41">
          <mxGeometry x="-0.0735" y="2" relative="1" as="geometry">
            <mxPoint as="offset" />
          </mxGeometry>
        </mxCell>
        <mxCell id="N-YGZ_K4RnM6IiN2btNT-10" value="云应用服务" style="pointerEvents=1;shadow=0;dashed=0;html=1;strokeColor=#001DBC;fillColor=#0050ef;labelPosition=center;verticalLabelPosition=bottom;verticalAlign=top;outlineConnect=0;align=center;shape=mxgraph.office.servers.exchange_hub_transport_server_role;fontColor=#000099;" vertex="1" parent="1">
          <mxGeometry x="380" y="447" width="52" height="59" as="geometry" />
        </mxCell>
        <mxCell id="N-YGZ_K4RnM6IiN2btNT-23" value="" style="edgeStyle=orthogonalEdgeStyle;rounded=0;orthogonalLoop=1;jettySize=auto;html=1;" edge="1" parent="1" source="N-YGZ_K4RnM6IiN2btNT-12" target="N-YGZ_K4RnM6IiN2btNT-2">
          <mxGeometry relative="1" as="geometry" />
        </mxCell>
        <mxCell id="N-YGZ_K4RnM6IiN2btNT-12" value="企业用户" style="pointerEvents=1;shadow=0;dashed=0;html=1;strokeColor=none;labelPosition=center;verticalLabelPosition=bottom;verticalAlign=top;outlineConnect=0;align=center;shape=mxgraph.office.users.users;fillColor=#2072B8;" vertex="1" parent="1">
          <mxGeometry x="661" y="273" width="46" height="50" as="geometry" />
        </mxCell>
        <mxCell id="N-YGZ_K4RnM6IiN2btNT-28" value="" style="edgeStyle=orthogonalEdgeStyle;rounded=0;orthogonalLoop=1;jettySize=auto;html=1;" edge="1" parent="1" source="N-YGZ_K4RnM6IiN2btNT-13" target="N-YGZ_K4RnM6IiN2btNT-14">
          <mxGeometry relative="1" as="geometry" />
        </mxCell>
        <mxCell id="N-YGZ_K4RnM6IiN2btNT-13" value="阿里运营" style="pointerEvents=1;shadow=0;dashed=0;html=1;strokeColor=none;fillColor=#505050;labelPosition=center;verticalLabelPosition=bottom;verticalAlign=top;outlineConnect=0;align=center;shape=mxgraph.office.users.communications;" vertex="1" parent="1">
          <mxGeometry x="-69" y="449" width="54" height="58" as="geometry" />
        </mxCell>
        <mxCell id="N-YGZ_K4RnM6IiN2btNT-21" value="" style="edgeStyle=orthogonalEdgeStyle;rounded=0;orthogonalLoop=1;jettySize=auto;html=1;" edge="1" parent="1" source="N-YGZ_K4RnM6IiN2btNT-14" target="N-YGZ_K4RnM6IiN2btNT-17">
          <mxGeometry relative="1" as="geometry" />
        </mxCell>
        <mxCell id="N-YGZ_K4RnM6IiN2btNT-44" value="登录" style="edgeLabel;html=1;align=center;verticalAlign=middle;resizable=0;points=[];" vertex="1" connectable="0" parent="N-YGZ_K4RnM6IiN2btNT-21">
          <mxGeometry x="-0.4242" y="3" relative="1" as="geometry">
            <mxPoint as="offset" />
          </mxGeometry>
        </mxCell>
        <mxCell id="N-YGZ_K4RnM6IiN2btNT-14" value="阿里集团&lt;br&gt;域账号" style="pointerEvents=1;shadow=0;dashed=0;html=1;strokeColor=none;fillColor=#505050;labelPosition=center;verticalLabelPosition=bottom;verticalAlign=top;outlineConnect=0;align=center;shape=mxgraph.office.devices.laptop;" vertex="1" parent="1">
          <mxGeometry x="20" y="461" width="58" height="34" as="geometry" />
        </mxCell>
        <mxCell id="N-YGZ_K4RnM6IiN2btNT-16" value="云桌面" style="pointerEvents=1;shadow=0;dashed=0;html=1;strokeColor=none;fillColor=#505050;labelPosition=center;verticalLabelPosition=bottom;verticalAlign=top;outlineConnect=0;align=center;shape=mxgraph.office.servers.scom;" vertex="1" parent="1">
          <mxGeometry x="370" y="271" width="56" height="53" as="geometry" />
        </mxCell>
        <mxCell id="N-YGZ_K4RnM6IiN2btNT-17" value="阿里域账号" style="pointerEvents=1;shadow=0;dashed=0;html=1;strokeColor=none;fillColor=#505050;labelPosition=center;verticalLabelPosition=bottom;verticalAlign=top;outlineConnect=0;align=center;shape=mxgraph.office.servers.application_server_ghosted;" vertex="1" parent="1">
          <mxGeometry x="210" y="450" width="46" height="56" as="geometry" />
        </mxCell>
        <mxCell id="N-YGZ_K4RnM6IiN2btNT-52" value="SERVER" style="text;html=1;align=center;verticalAlign=middle;resizable=0;points=[];autosize=1;strokeColor=none;fontColor=#000099;fontSize=16;" vertex="1" parent="1">
          <mxGeometry x="190" y="230" width="80" height="20" as="geometry" />
        </mxCell>
      </root>
    </mxGraphModel>
  </diagram>
</mxfile>
